HIERARCHY
ROOT Hips
{
	OFFSET -0.179506 -22.333345 2.821913
	CHANNELS 6 Xposition Yposition Zposition Zrotation Yrotation Xrotation 
	JOINT LeftUpLeg
	{
		OFFSET 6.951974 -9.140623 -0.681533
		CHANNELS 3 Zrotation Yrotation Xrotation
		JOINT LeftLeg
		{
			OFFSET 3.427654 -37.519855 -0.449580
			CHANNELS 3 Zrotation Yrotation Xrotation
			JOINT LeftFoot
			{
				OFFSET -1.359570 -39.796059 -4.369333
				CHANNELS 3 Zrotation Yrotation Xrotation
				JOINT LeftToe
				{
					OFFSET 2.635814 -5.579078 11.928840
					CHANNELS 3 Zrotation Yrotation Xrotation
					End Site
					{
						OFFSET 0.000000 0.000000 0.000000
					}
				}
			}
		}
	}
	JOINT RightUpLeg
	{
		OFFSET -6.767048 -9.052170 -0.431982
		CHANNELS 3 Zrotation Yrotation Xrotation
		JOINT RightLeg
		{
			OFFSET -3.829005 -38.256897 -0.885003
			CHANNELS 3 Zrotation Yrotation Xrotation
			JOINT RightFoot
			{
				OFFSET 1.577377 -39.841461 -4.231180
				CHANNELS 3 Zrotation Yrotation Xrotation
				JOINT RightToe
				{
					OFFSET -2.537174 -4.814398 12.334795
					CHANNELS 3 Zrotation Yrotation Xrotation
					End Site
					{
						OFFSET 0.000000 0.000000 0.000000
					}
				}
			}
		}
	}
	JOINT Spine
	{
		OFFSET -0.253288 10.896323 -2.669631
		CHANNELS 3 Zrotation Yrotation Xrotation
		JOINT Spine1
		{
			OFFSET 0.548704 13.518043 0.109247
			CHANNELS 3 Zrotation Yrotation Xrotation
			JOINT Spine2
			{
				OFFSET 0.145701 5.292222 2.542457
				CHANNELS 3 Zrotation Yrotation Xrotation
				JOINT Neck
				{
					OFFSET -0.277840 21.387037 -4.285703
					CHANNELS 3 Zrotation Yrotation Xrotation
					JOINT Head
					{
						OFFSET 0.515184 6.496960 5.134897
						CHANNELS 3 Zrotation Yrotation Xrotation
						End Site
						{
							OFFSET 0.000000 0.000000 0.000000
						}
					}
				}
				JOINT LeftShoulder
				{
					OFFSET 7.884473 12.174932 -3.408961
					CHANNELS 3 Zrotation Yrotation Xrotation
					JOINT LeftArm
					{
						OFFSET 9.097692 3.046888 -0.886815
						CHANNELS 3 Zrotation Yrotation Xrotation
						JOINT LeftForeArm
						{
							OFFSET 25.961220 -1.277207 -2.745643
							CHANNELS 3 Zrotation Yrotation Xrotation
							JOINT LeftHand
							{
								OFFSET 24.923361 0.898606 -0.117091
								CHANNELS 3 Zrotation Yrotation Xrotation
								End Site
								{
									OFFSET 0.000000 0.000000 0.000000
								}
							}
						}
					}
				}
				JOINT RightShoulder
				{
					OFFSET -8.175920 11.883285 -3.861528
					CHANNELS 3 Zrotation Yrotation Xrotation
					JOINT RightArm
					{
						OFFSET -9.601238 3.255117 -0.914307
						CHANNELS 3 Zrotation Yrotation Xrotation
						JOINT RightForeArm
						{
							OFFSET -25.374195 -1.332924 -2.140099
							CHANNELS 3 Zrotation Yrotation Xrotation
							JOINT RightHand
							{
								OFFSET -25.529810 0.777228 -0.555919
								CHANNELS 3 Zrotation Yrotation Xrotation
								End Site
								{
									OFFSET 0.000000 0.000000 0.000000
								}
							}
						}
					}
				}
			}
		}
	}
}
MOTION
Frames: 6
Frame Time: 0.033333
-36.987629 -337.846283 97.898949 178.804717 0.198954 91.719496 0.691918 1.479379 1.666599 2.426865 0.017996 -3.358054 -2.703420 12.689964 -0.882354 nan nan nan 2.077080 -0.944142 -0.367029 2.588271 -0.620632 0.208582 5.001588 -6.900737 -0.137934 nan nan nan -2.156828 2.296262 -0.530786 3.726121 -2.390283 5.056371 0.134867 -0.470720 -3.219960 2.109809 -3.631420 -0.219856 4.404131 -6.051761 -1.751057 -17.904507 6.775666 -2.100650 -67.303954 -6.500977 22.903601 4.721806 -22.429112 -9.740386 -4.512245 -17.520770 -21.049911 19.244687 -0.761265 -3.305658 64.084339 4.824994 18.080315 -6.764193 27.001800 -20.232402 -2.119328 11.841473 -34.181733 
-36.827316 -337.777344 98.034096 178.768493 0.149661 91.714677 0.656564 1.088029 1.780688 2.534113 -0.002609 -3.188414 -2.365018 13.017516 -1.403012 nan nan nan 2.083234 -0.890692 -0.168384 2.596431 -0.601312 0.092561 5.063949 -6.872147 -0.111288 nan nan nan -2.308786 2.436795 -0.867766 3.772087 -2.392358 5.490559 0.124814 -0.535801 -3.525205 1.992546 -3.723475 -0.189474 4.303507 -6.072226 -1.538567 -18.105740 6.836754 -2.079123 -67.102928 -6.397617 22.758761 5.046710 -22.393632 -10.225855 -5.237075 -17.447613 -20.452314 19.449282 -0.737904 -3.205447 63.857131 4.603661 18.146253 -6.935924 27.026266 -20.131042 -1.502645 11.982455 -33.594660 
-36.652416 -337.232086 97.986343 -179.644138 0.181901 90.064969 1.144547 1.207108 3.879101 2.410156 -1.043639 -3.376906 -3.328795 12.325306 -1.964528 nan nan nan 2.148070 -2.110183 3.260626 2.708132 -0.506859 -1.933616 5.304372 -7.318574 -0.061142 nan nan nan -2.595897 2.305689 -0.208967 3.970142 -3.113638 5.825915 0.283261 -1.125140 -2.710088 2.271707 -4.054497 -0.905648 3.837448 -6.355903 -0.953669 -17.376046 7.036568 -1.608141 -67.880497 -7.106057 22.416088 5.247683 -22.190103 -10.754933 -6.052107 -17.570418 -20.357379 18.982983 -1.219714 -3.680668 64.189171 4.874965 17.974967 -6.508704 26.737132 -20.391443 -0.208333 11.987595 -34.010814 
-36.580059 -337.172699 97.989502 -179.478548 0.211978 89.928572 1.004396 0.147634 4.158455 2.740294 -0.741926 -3.384710 -3.574684 12.787061 -2.091012 nan nan nan 2.158224 -2.276992 3.592417 2.702206 -0.857747 -2.115812 5.679842 -6.937195 -0.058287 nan nan nan -2.422343 2.386202 0.144527 3.894600 -3.227032 5.499233 0.391731 -1.319713 -2.593451 2.064747 -3.982371 -0.639358 3.884700 -6.109472 -1.290135 -17.354202 7.151395 -1.766632 -68.757049 -7.196549 20.618952 6.922894 -21.055078 -13.138142 -13.583829 -17.950939 -15.165380 19.507923 -1.397916 -3.253262 62.385914 4.369685 17.851025 -6.653093 26.760176 -11.895680 10.890464 13.407914 -20.260978 
-36.525639 -337.112152 98.006432 -179.396052 -0.033555 89.918058 1.004408 0.598583 3.824010 2.393189 -0.697712 -2.663027 -3.686505 12.179799 -2.384023 nan nan nan 1.802444 -2.500001 3.717152 2.823327 -0.908691 -2.207540 5.800242 -6.692381 -0.113191 nan nan nan -2.462658 2.387305 0.144137 3.760164 -3.243275 5.593804 0.291842 -1.295563 -2.681648 2.160049 -3.969561 -0.772317 3.711072 -6.332223 -1.118666 -17.430539 7.181593 -1.610240 -68.771350 -7.307233 20.308279 7.555536 -20.910071 -13.566853 -14.696940 -17.783273 -14.714614 19.630369 -1.363547 -2.817058 62.486122 4.318700 17.441799 -7.297451 27.170648 -12.022238 11.700441 13.621345 -19.665213 
-36.270130 -336.836578 97.928703 -179.203738 -0.220133 89.330024 1.223348 1.290935 4.421037 2.272773 -1.126795 -2.403491 -5.214826 11.618040 -2.614653 nan nan nan 1.661754 -3.271686 5.005936 2.632685 -1.057189 -2.893036 6.836421 -5.904906 -0.371450 nan nan nan -2.390432 2.474865 0.939566 3.360647 -3.036776 4.807739 0.238879 -0.884340 -1.749195 1.673623 -4.486289 -0.704918 4.523035 -6.317319 -1.882421 -17.403320 6.576294 -1.303163 -68.267797 -7.865014 19.297156 6.815995 -20.496192 -12.814445 -13.596098 -19.548243 -15.779384 19.389855 -2.544432 -3.097566 62.989709 4.836888 14.687454 -4.924152 26.955929 -8.397747 11.347225 13.723446 -14.489453 
